<?xml version="1.0" encoding="utf-8"?>
<!-- Generator: Adobe Illustrator 12.0.0, SVG Export Plug-In . SVG Version: 6.00 Build 51448)  -->
<!DOCTYPE svg PUBLIC "-//W3C//DTD SVG 1.1//EN" "http://www.w3.org/Graphics/SVG/1.1/DTD/svg11.dtd" [
	<!ENTITY ns_svg "http://www.w3.org/2000/svg">
	<!ENTITY ns_xlink "http://www.w3.org/1999/xlink">
]>
<svg  version="1.1" id="Layer_1" xmlns="&ns_svg;" xmlns:xlink="&ns_xlink;" width="926.129" height="1150.736"
	 viewBox="0 0 926.129 1150.736" overflow="visible" enable-background="new 0 0 926.129 1150.736" xml:space="preserve">
<g id="svg3123" xmlns:dc="http://purl.org/dc/elements/1.1/" xmlns:sodipodi="http://inkscape.sourceforge.net/DTD/sodipodi-0.dtd" xmlns:inkscape="http://www.inkscape.org/namespaces/inkscape" xmlns:svg="http://www.w3.org/2000/svg" xmlns:cc="http://web.resource.org/cc/" xmlns:rdf="http://www.w3.org/1999/02/22-rdf-syntax-ns#" sodipodi:version="0.32" inkscape:version="0.43" sodipodi:docbase="/home/sven/Desktop" sodipodi:docname="A_size_illustration.svg">
	<g>
		<path id="path8466" fill="none" stroke="#010101" d="M60.039,65.271V7.175"/>
		<path id="path8468" fill="none" stroke="#010101" d="M900.039,65.271V7.175"/>
		<path id="path8470" fill="none" stroke="#010101" d="M70.096,63.176H16.961"/>
		<path id="path8476" fill="none" stroke="#010101" d="M59.12,335.745H5.986"/>
		<path id="path9351" sodipodi:nodetypes="cc" fill="none" stroke="#010101" d="M31.402,606.707H5.986"/>
		<path id="path11120" fill="none" stroke="#010101" d="M58.096,1150.236H0"/>
		<path id="path11130" fill="none" stroke="#010101" d="M270.34,65.271V7.175"/>
		<path id="path11132" sodipodi:nodetypes="cc" fill="none" stroke="#010101" d="M479.315,30.925V7.175"/>
		<path id="rect11134" sodipodi:nodetypes="ccccccccccc" fill="#010101" d="M75.984,36.288l-15.375,4.625l15.375,4.656v-3.188
			h809.147v3.188l15.375-4.656l-15.375-4.625v3.156H75.984V36.288z"/>
		<path id="path13763" sodipodi:nodetypes="ccccccccccc" fill="#010101" d="M495.198,12.449l-15.375,4.625l15.375,4.656v-3.188
			h389.935v3.188l15.375-4.656l-15.375-4.625v3.156H495.198V12.449z"/>
		<path id="path13765" sodipodi:nodetypes="ccccccccccc" fill="#010101" d="M286.369,12.449l-15.375,4.625l15.375,4.656v-3.188
			h177.063v3.188l15.375-4.656l-15.375-4.625v3.156H286.369V12.449z"/>
		<rect id="rect13771" x="423.692" y="28.263" fill="#FFFFFF" width="83.065" height="28.809"/>
		<text transform="matrix(1 0 0 1 443.0459 48.9214)" fill="#010101" font-family="'ArialMT'" font-size="18.0346">34 in.</text>
		<rect id="rect14650" x="668.616" fill="#FFFFFF" width="77.597" height="28.809"/>
		<text transform="matrix(1 0 0 1 684.3223 23.2075)" fill="#010101" font-family="'ArialMT'" font-size="18.0346">17 in.</text>
		<rect id="rect14656" x="342.519" y="2.685" fill="#FFFFFF" width="66.097" height="28.809"/>
		<text transform="matrix(1 0 0 1 354.0059 23.6538)" fill="#010101" font-family="'ArialMT'" font-size="18.0346">8½ in.</text>
		<path id="path14670" sodipodi:nodetypes="ccccccccccc" fill="#010101" d="M49.938,77.612l-4.229-14.063l-4.259,14.063h2.916
			v1058.562h-2.916l4.259,14.063l4.229-14.063h-2.887V77.612H49.938z"/>
		<path id="path14672" sodipodi:nodetypes="ccccccccccc" fill="#010101" d="M22.5,350.034l-4.23-14.062l-4.258,14.062h2.915V591.33
			h-2.915l4.258,14.063l4.23-14.063h-2.887V350.034H22.5z"/>
		<path id="path14678" sodipodi:nodetypes="ccccccccccc" fill="#010101" d="M22.5,621.088l-4.23-14.018l-4.258,14.018h2.915v515
			h-2.915l4.258,14.02l4.23-14.018h-2.887V621.088H22.5z"/>
		<rect id="rect14682" x="34.829" y="577.85" fill="#FFFFFF" width="21.729" height="60.085"/>
		<text transform="matrix(0 -1 1 0 51.6992 626.8008)" fill="#010101" font-family="'ArialMT'" font-size="16.4946">44 in.</text>
		<rect id="rect14688" x="7.391" y="820.471" fill="#FFFFFF" width="21.729" height="67.154"/>
		<text transform="matrix(0 -1 1 0 24.2607 869.4355)" fill="#010101" font-family="'ArialMT'" font-size="16.4946">22 in.</text>
		<rect id="rect14694" x="8.059" y="434.025" fill="#FFFFFF" width="21.729" height="57.98"/>
		<text transform="matrix(0 -1 1 0 22.9277 481.7051)" fill="#010101" font-family="'ArialMT'" font-size="16.4946">11 in.</text>
		<rect id="rect14700" x="6.725" y="180.594" fill="#FFFFFF" width="21.729" height="53.462"/>
		<g>
			<g>
				
					<linearGradient id="XMLID_6_" gradientUnits="userSpaceOnUse" x1="60.0391" y1="561.6836" x2="900.0391" y2="561.6836" gradientTransform="matrix(1 0 0 -1 0 1168.3906)">
					<stop  offset="0" style="stop-color:#B7D777"/>
					<stop  offset="1" style="stop-color:#F2F5FB"/>
				</linearGradient>
				<rect x="60.039" y="63.177" fill="url(#XMLID_6_)" stroke="#010101" stroke-width="1.0008" width="840" height="1087.06"/>
				
					<linearGradient id="XMLID_7_" gradientUnits="userSpaceOnUse" x1="298.3413" y1="638.3125" x2="634.4305" y2="-6.1151" gradientTransform="matrix(1 0 0 -1 0 1168.3906)">
					<stop  offset="0" style="stop-color:#B7D777"/>
					<stop  offset="1" style="stop-color:#F2F5FB"/>
				</linearGradient>
				<rect x="60.039" y="606.707" fill="url(#XMLID_7_)" stroke="#010101" stroke-width="1.0008" width="840" height="543.527"/>
				
					<linearGradient id="XMLID_8_" gradientUnits="userSpaceOnUse" x1="548.8867" y1="1104.0996" x2="809.9799" y2="603.4716" gradientTransform="matrix(1 0 0 -1 0 1168.3906)">
					<stop  offset="0" style="stop-color:#B7D777"/>
					<stop  offset="1" style="stop-color:#F2F5FB"/>
				</linearGradient>
				<rect x="480.039" y="63.176" fill="url(#XMLID_8_)" stroke="#010101" stroke-width="1.0008" width="420" height="543.531"/>
				
					<linearGradient id="XMLID_9_" gradientUnits="userSpaceOnUse" x1="179.1904" y1="871.7637" x2="347.2355" y2="549.5489" gradientTransform="matrix(1 0 0 -1 0 1168.3906)">
					<stop  offset="0" style="stop-color:#B7D777"/>
					<stop  offset="1" style="stop-color:#F2F5FB"/>
				</linearGradient>
				<rect x="60.039" y="334.941" fill="url(#XMLID_9_)" stroke="#010101" stroke-width="1.0008" width="420" height="271.766"/>
				
					<linearGradient id="XMLID_10_" gradientUnits="userSpaceOnUse" x1="304.4634" y1="1104.6563" x2="435.0097" y2="854.3428" gradientTransform="matrix(1 0 0 -1 0 1168.3906)">
					<stop  offset="0" style="stop-color:#B7D777"/>
					<stop  offset="1" style="stop-color:#F2F5FB"/>
				</linearGradient>
				<rect x="270.039" y="63.176" fill="url(#XMLID_10_)" stroke="#010101" stroke-width="1.0008" width="210" height="271.765"/>
				<g enable-background="new    ">
					<text transform="matrix(1 0 0 1 383.084 684.2246)" fill="#FFFFFF" font-family="'ArialMT'" font-size="290.7254">E</text>
				</g>
				<g enable-background="new    ">
					
						<text transform="matrix(1 0 0 1 383.084 684.2246)" fill="none" stroke="#010101" font-family="'ArialMT'" font-size="290.7254">E</text>
				</g>
			</g>
			<text transform="matrix(1 0 0 1 346.5352 221.8335)" fill="#010101" font-family="'ArialMT'" font-size="85.419">A</text>
			<text transform="matrix(1 0 0 1 234.4946 499.2417)" fill="#010101" font-family="'ArialMT'" font-size="106.5802">B</text>
			<text transform="matrix(1 0 0 1 640.2988 371.6704)" fill="#010101" font-family="'ArialMT'" font-size="137.7522">C</text>
			<text transform="matrix(1 0 0 1 415.7832 925.918)" fill="#010101" font-family="'ArialMT'" font-size="177.9515">D</text>
		</g>
		<path id="path19324" fill="none" d="M926.129,63.055h-32.865"/>
		<path id="path13765_2_" sodipodi:nodetypes="ccccccccccc" fill="#010101" d="M14.259,313.417l4.625,19.912l4.656-19.912h-3.188
			V84.096h3.188l-4.656-19.912l-4.625,19.912h3.156v229.321H14.259L14.259,313.417z"/>
		<rect id="rect14694_2_" x="8.391" y="179.692" fill="#FFFFFF" width="21.729" height="51.98"/>
		<text transform="matrix(0 -1 1 0 24.2607 223.6504)" fill="#010101" font-family="'ArialMT'" font-size="16.4946">11 in.</text>
		<rect x="331.541" y="235.702" fill="none" width="86.996" height="35.998"/>
		<text transform="matrix(1 0 0 1 333.5801 252.7417)" fill="#010101" font-family="'Myriad-Roman'" font-size="24">( Letter )</text>
		<rect x="176.293" y="513.703" fill="none" width="187.492" height="35.998"/>
		<text transform="matrix(1 0 0 1 176.2969 530.7417)" fill="#010101" font-family="'Myriad-Roman'" font-size="24">( Ledger / Tabloid )</text>
	</g>
</g>
</svg>
